<svg version="1.1" xmlns="http://www.w3.org/2000/svg" viewBox="-118.40447157400092 -18.459802373272904 236.80894314800182 36.9180740451855" fill="none" stroke="black" stroke-width="0.6%" vector-effect="non-scaling-stroke">
    <path d="M -107.67449 12.26635 L -117.40447 13.71185 L -117.40447 17.44181 L -9.98985 17.45827 L -9.98985 13.72831 L 0 13.72984 L 0 3.72996 L -9.98985 3.72843 L -9.98985 -0.00153 L -117.40447 -0.01799 L -117.40447 3.71197 L -107.67449 3.71346 L -107.67449 13.71335 L -117.40447 13.71185" />
    <path d="M 107.41462 0.01646 L -9.98985 17.45827" />
    <path d="M 107.41462 0.01646 L 107.41462 -2.22786" />
    <path d="M 117.40447 -3.71197 L 0 13.72984" />
    <path d="M 117.40447 -13.71185 L 0 3.72996" />
    <path d="M 117.40447 -3.71197 L 117.40447 -13.71185 L 107.41462 -13.71339 L 107.41462 -17.44334 L 0 -17.4598 L -117.40447 -0.01799" />
    <path d="M 107.41462 -13.71339 L -9.98985 3.72843" />
    <path d="M 107.41462 -17.44334 L -9.98985 -0.00153" />
</svg>